<svg xmlns="http://www.w3.org/2000/svg" width="45.025" height="40.308" viewBox="0 0 45.025 40.308">
  <path id="ic_card_quote" d="M28.694-9.462V-30.256H17.978c.32-3.839,1.28-6.718,2.879-8.8a15.13,15.13,0,0,1,7.838-4.639V-49.77a20.837,20.837,0,0,0-6.078,1.6,22.683,22.683,0,0,0-7.678,4.959,16.731,16.731,0,0,0-4.319,7.2,39.3,39.3,0,0,0-.96,5.758l-.16,2.4V-9.462Zm25.831,0V-30.256H43.808c.32-3.839,1.28-6.718,2.879-8.8s4.319-3.679,7.838-4.639V-49.77a19.7,19.7,0,0,0-6.078,1.6,23.377,23.377,0,0,0-7.838,4.959,18.1,18.1,0,0,0-4.159,7.2,39.3,39.3,0,0,0-.96,5.758l-.16,2.4V-9.462Z" transform="translate(-9.5 49.77)" fill="#fff"/>
</svg>
