<svg xmlns="http://www.w3.org/2000/svg" width="54.48" height="54.48" viewBox="0 0 54.48 54.48">
  <g id="ic_card_tip" transform="translate(0 0)">
    <path id="Caminho_10" data-name="Caminho 10" d="M35.24,8A27.165,27.165,0,0,0,13.026,50.907c-.128.267-.284.563-.486.973-1.472,2.97-2.842,5.663-4.4,8.715a1.3,1.3,0,0,0,1.642,1.784l11.026-4.54a1.3,1.3,0,1,0-.973-2.392l-7.8,3.223c.955-1.9,1.822-3.584,2.837-5.634.243-.492.444-.893.588-1.2a1.613,1.613,0,0,0,.061-1.8,24.652,24.652,0,1,1,19.721,9.85,25.6,25.6,0,0,1-9.87-1.844,1.3,1.3,0,1,0-1.013,2.392A28.215,28.215,0,0,0,35.24,62.48,27.24,27.24,0,0,0,35.24,8Zm0,7.783a12.943,12.943,0,0,0-10.5,20.552c.017.028.023.054.041.081,1.41,2.243,2.675,3.812,2.675,7.256a1.348,1.348,0,0,0,1.3,1.3H41.726a1.348,1.348,0,0,0,1.3-1.3c0-3.443,1.265-5.013,2.675-7.256.017-.027.023-.053.041-.081a12.943,12.943,0,0,0-10.5-20.552Zm0,2.594a10.347,10.347,0,0,1,8.35,16.5q-.022.04-.041.081a16.094,16.094,0,0,0-2.979,7.418H29.91a16.1,16.1,0,0,0-2.979-7.418q-.019-.041-.041-.081a10.347,10.347,0,0,1,8.35-16.5Zm3.75,5.168a1.306,1.306,0,0,0-.669.3l-6.486,5.189a1.3,1.3,0,0,0,.486,2.25l2.939.79-2.878,2.878A1.3,1.3,0,1,0,34.206,36.8l4.5-4.5a1.367,1.367,0,0,0-.588-2.169l-2.635-.689,4.459-3.567a1.3,1.3,0,0,0-.953-2.331ZM29.281,46.914a1.3,1.3,0,1,0,.122,2.594H41.077a1.3,1.3,0,1,0,0-2.594ZM31.875,52.1A1.3,1.3,0,1,0,32,54.7h6.486a1.3,1.3,0,1,0,0-2.594Z" transform="translate(-8 -8)" fill="#4507a1"/>
  </g>
</svg>
