<svg xmlns="http://www.w3.org/2000/svg" width="58.088" height="77.382" viewBox="0 0 58.088 77.382">
  <g id="ic_card_sober" transform="translate(0 0)">
    <g id="Layer_1" data-name="Layer 1">
      <path id="Caminho_1" data-name="Caminho 1" d="M.392,39.01S-1.464,36.994,2.9,33.2s10.79-15.056,8.28-19.639S3.6,3.15,7.321,1.278s10.462-2.33,12.891,3.155,1.569,13.682,4.31,12.634,5.156-5.237,13.463-8.052,6.82,7.083,6.6,7.2,7.148.34,5.088,7.554c0,0,6.588,3.4,2.8,8.248,0,0,5.743,5.433-2.155,9.387A82.779,82.779,0,0,0,39.4,47.6s-14.446,5.708-20.625,6.664-9.167,1.9-10.913-1.479S.392,39.01.392,39.01Z" transform="translate(0.395 22.228)" fill="#fff" opacity="0.3"/>
      <path id="Caminho_2" data-name="Caminho 2" d="M.28,37.8s-1.651-2.16,3.07-5.551S15.508,18.165,13.434,13.36,6.857,2.388,10.7.843,21.349-.571,23.245,5.1s.273,13.76,3.125,12.9,5.636-4.753,14.205-6.86,6.127,7.659,5.895,7.751,7.1.969,4.353,7.973c0,0,6.25,3.928,2.02,8.445,0,0,5.213,5.918-3.029,9.165A84.842,84.842,0,0,0,38.351,49.7s-14.928,4.425-21.178,4.844-9.306,1.1-10.794-2.422S.28,37.8.28,37.8Z" transform="translate(2.448 19.709)" fill="none" stroke="#fff" stroke-linecap="round" stroke-linejoin="round" stroke-width="2.33"/>
      <path id="Caminho_3" data-name="Caminho 3" d="M.124.021A2.326,2.326,0,0,0,1.975,1.707a6.243,6.243,0,0,0,2.657-.131c.922-.186,1.824-.454,2.753-.557S9.209.8,10.186.736v.1A7.351,7.351,0,0,1,7.564,2.072a15.83,15.83,0,0,1-2.829.351,6.883,6.883,0,0,1-2.932-.2A3.235,3.235,0,0,1,.564,1.377,2.065,2.065,0,0,1,0,0Z" transform="translate(15.517 69.652)" fill="#fff"/>
      <path id="Caminho_4" data-name="Caminho 4" d="M1,.911A.688.688,0,0,0,.53.573.433.433,0,0,1,.241.5.826.826,0,0,1,0,.188V.133A.551.551,0,0,1,.406,0C.537,0,.633.119.73.2A1.122,1.122,0,0,1,.984.518a.606.606,0,0,1,.048.392Z" transform="translate(23.893 27.622)" fill="#fff"/>
      <path id="Caminho_5" data-name="Caminho 5" d="M1.714,1.274A3.372,3.372,0,0,0,.895.641C.75.572.6.586.475.531A3,3,0,0,0,0,.379V.331A.613.613,0,0,1,.578,0a.874.874,0,0,1,.578.282,2.5,2.5,0,0,1,.613.957Z" transform="translate(22.167 22.349)" fill="#fff"/>
      <path id="Caminho_6" data-name="Caminho 6" d="M2.306.469a5.375,5.375,0,0,0-1.156,0,3.752,3.752,0,0,1-.544.1A2.065,2.065,0,0,1,0,.455V.4A.984.984,0,0,1,.544.035a1.377,1.377,0,0,1,.619,0,3.256,3.256,0,0,1,1.17.351Z" transform="translate(19.148 20.076)" fill="#fff"/>
      <path id="Caminho_7" data-name="Caminho 7" d="M7.438,3.091H5.409a17.255,17.255,0,0,1-2-.183,3.928,3.928,0,0,1-1.964-.367A3.561,3.561,0,0,1,.015.734.2.2,0,0,1,.106.486,3.928,3.928,0,0,1,2.332.014c.655,0,1.139.563,1.715.864s1.152.615,1.715.943,1.152.642,1.728,1.008a.144.144,0,0,1,0,.2.144.144,0,0,1-.052.065Z" transform="translate(0 18.556)" fill="#fff"/>
      <path id="Caminho_8" data-name="Caminho 8" d="M4.623,4.294C3.733,3.692,2.895,3.116,2,2.605,1.573,2.343,1.036,2.252.7,1.833A3.43,3.43,0,0,1,0,.275.157.157,0,0,1,.106.1,2.7,2.7,0,0,1,1.952.236c.537.209.8.772,1.139,1.191A10.867,10.867,0,0,1,4.78,4.2a.092.092,0,0,1,0,.131.1.1,0,0,1-.157-.039Z" transform="translate(4.04 5.371)" fill="#fff"/>
      <path id="Caminho_9" data-name="Caminho 9" d="M.688,13.843a3.234,3.234,0,0,1-.681-1.951A8.85,8.85,0,0,1,.164,9.837C.426,8.528.767,7.4,1.12,6.2A10.029,10.029,0,0,1,2.285,2.636,7.646,7.646,0,0,1,3.608,1.2,6.455,6.455,0,0,1,5.467.018.275.275,0,0,1,5.82.175h0a7.319,7.319,0,0,1,.34,2.186,8.143,8.143,0,0,1-.209,1.911A9.911,9.911,0,0,1,4.079,7.415l-1,1.6c-.34.511-.733,1.034-1.034,1.532a4.5,4.5,0,0,0-1.008,3.129h0a.2.2,0,0,1-.17.236A.17.17,0,0,1,.688,13.843Z" transform="translate(20.104)" fill="#fff"/>
    </g>
  </g>
</svg>
