<svg xmlns="http://www.w3.org/2000/svg" width="56.331" height="48.284" viewBox="0 0 56.331 48.284">
  <g id="ic_card_health" transform="translate(0 0)">
    <g id="Grupo_14" data-name="Grupo 14">
      <path id="Caminho_15" data-name="Caminho 15" d="M44.81,969.365a1.346,1.346,0,0,0-.587.189c-2.853,1.612-4.766,5.008-6.076,9.489-.2.694-.393,1.429-.566,2.178a40.9,40.9,0,0,0-3.163-2.849c-1.988-3.445-3.452-5.613-5.74-6.87-2.378-1.307-5.246-1.445-9.951-1.445q-.063,0-.126,0a1.408,1.408,0,0,0-1.068,1.927c.84,1.716,1.417,3.085,2.074,4.252a7.049,7.049,0,0,0,5.217,3.833c2.065.334,4.47.226,8.212.67a20.222,20.222,0,0,1,3.876,3.938,70.7,70.7,0,0,0-.733,10.18H29.453a5.141,5.141,0,0,0-1.487.272c-.581.154-1.3.369-2.116.628-1.639.519-3.7,1.223-5.845,1.969-4.29,1.492-8.935,3.16-11.1,3.9A1.378,1.378,0,0,0,8,1002.9V1014.3a1.408,1.408,0,0,0,1.8,1.257c7.343-2.745,11.6-2.243,15.4-1.089s7.267,3.184,12.3,3.184a1.254,1.254,0,0,0,.377-.042c5.091-1.455,18.8-6.429,24.156-8.064a1.34,1.34,0,0,0,.272-.126c3.878-2.239,1.884-9.2-3.352-9.2a1.758,1.758,0,0,0-.272.021c-2.574.536-6,1.372-9.155,2.074a49.4,49.4,0,0,1-7.333,1.257,19.9,19.9,0,0,1-3.834-.377l2.032-.314h.063a4.056,4.056,0,0,0,3.08-4.294,3.98,3.98,0,0,0-1.089-2.555,4.066,4.066,0,0,0-2.933-1.173H38.86c.016-1.994.076-3.9.23-5.718a43.529,43.529,0,0,1,6.662-4.294,21.191,21.191,0,0,0,7.793.419,7.575,7.575,0,0,0,4.588-2.7c2.068-2.556,2.748-5.737,5.8-8.9a1.341,1.341,0,0,0-.985-2.262c-2.293.046-4.183-.02-5.8-.021a21.733,21.733,0,0,0-4.232.293c-2.5.5-4.37,2.1-5.887,5.153-.2.405-.42.877-.649,1.382a1.341,1.341,0,1,0,2.43,1.11c.222-.488.427-.936.608-1.3,1.339-2.689,2.186-3.341,4.022-3.708a43.5,43.5,0,0,1,6.7-.23c-2.032,2.8-2.926,5.353-4.085,6.787a4.537,4.537,0,0,1-3.017,1.76,19.79,19.79,0,0,1-7.228-.482q-.062-.013-.126-.021a2.044,2.044,0,0,0-1.215.4,48.586,48.586,0,0,0-4.965,2.974,42.52,42.52,0,0,1,1.215-5.7c1.208-4.134,2.97-6.885,4.8-7.918a1.341,1.341,0,0,0-.712-2.514Zm-23.9,3.456c3.047.086,5.181.316,6.474,1.026,1.182.649,2.265,2.051,3.52,4.022-2.158-.148-4.555-.283-5.657-.461-1.636-.264-2.224-.564-3.31-2.493-.272-.483-.7-1.391-1.027-2.095Zm8.548,24.717H39.509a1.228,1.228,0,0,1,1.006.356,1.347,1.347,0,0,1,.335.859,1.314,1.314,0,0,1-.943,1.487l-8.652,1.341a1.341,1.341,0,0,0-.042,2.639c3.513.7,5.955,2.032,10.978,2.032a43.991,43.991,0,0,0,7.919-1.32c3.137-.7,6.466-1.49,8.946-2.011,2.8.091,3.037,3.432,1.927,4.147-5.635,1.738-18.867,6.486-23.674,7.876-4.191-.055-7.234-1.792-11.334-3.037-3.815-1.159-8.558-1.57-15.294.586v-8.63c2.4-.828,6.3-2.238,10.224-3.6,2.134-.742,4.169-1.444,5.761-1.948.8-.252,1.478-.45,1.99-.586.369-.1.7-.166.8-.189Z" transform="translate(-8 -969.364)" fill="#4507a1"/>
    </g>
  </g>
</svg>
