<svg id="ic_send_audio" xmlns="http://www.w3.org/2000/svg" width="19.664" height="25.803" viewBox="0 0 19.664 25.803">
  <path id="Caminho_44" data-name="Caminho 44" d="M17.707,94.2a.979.979,0,0,1,1.957,0v1.467a9.854,9.854,0,0,1-8.8,9.783v3.522a.979.979,0,0,1-1.957,0v-3.522A9.94,9.94,0,0,1,0,95.671V94.2a.979.979,0,0,1,1.957,0v1.467a7.875,7.875,0,0,0,15.751,0Z" transform="translate(0 -84.127)" fill="#4507a1"/>
  <path id="Caminho_45" data-name="Caminho 45" d="M50.478,0a5.428,5.428,0,0,1,5.381,5.381v6.163a5.43,5.43,0,0,1-10.859,0V5.381A5.449,5.449,0,0,1,50.478,0Zm0,1.957a3.488,3.488,0,0,0-3.522,3.424v6.163a3.473,3.473,0,0,0,6.946,0V5.381A3.466,3.466,0,0,0,50.478,1.957Z" transform="translate(-40.598)" fill="#4507a1"/>
</svg>
