<svg xmlns="http://www.w3.org/2000/svg" width="28.541" height="24" viewBox="0 0 28.541 24">
  <g id="ic_tab_community" transform="translate(-5.997 -965.362)">
    <path id="Caminho_36" data-name="Caminho 36" d="M16.051,965.362a5.838,5.838,0,1,0,5.838,5.838A5.852,5.852,0,0,0,16.051,965.362Zm0,1.946A3.892,3.892,0,1,1,12.16,971.2,3.877,3.877,0,0,1,16.051,967.308Zm11.026,1.622a4.216,4.216,0,1,0,4.216,4.216A4.231,4.231,0,0,0,27.078,968.93Zm0,1.946a2.27,2.27,0,1,1-2.27,2.27A2.256,2.256,0,0,1,27.078,970.875Zm-11.351,6.811A9.932,9.932,0,0,0,6,987.72c0,.235,0,.482.01.7a1.01,1.01,0,0,0,.973.943H25.122a1.01,1.01,0,0,0,.973-.922c.014-.259.01-.469.01-.7a10.2,10.2,0,0,0-4.672-8.615.974.974,0,1,0-1.034,1.652,8.224,8.224,0,0,1,3.719,6.639H7.974a7.944,7.944,0,0,1,7.753-7.784h.649a7.351,7.351,0,0,1,2.007.284.974.974,0,0,0,.527-1.875,9.318,9.318,0,0,0-2.534-.355Zm11.026.324a7.058,7.058,0,0,0-2.25.365.976.976,0,0,0,.608,1.855,5.027,5.027,0,0,1,1.642-.274H27.4a4.905,4.905,0,0,1,5.159,4.541H27.726a.973.973,0,1,0,0,1.946h5.827a1.01,1.01,0,0,0,.973-.922c.014-.261.01-.483.01-.7a6.934,6.934,0,0,0-7.135-6.811Z" transform="translate(0)" fill="#a6becf"/>
  </g>
</svg>
