<svg xmlns="http://www.w3.org/2000/svg" width="24" height="24" viewBox="0 0 24 24">
  <g id="ic_tab_sos" transform="translate(-310 -29)">
    <text id="SOS" transform="translate(322 44)" fill="#a6becf" font-size="9" font-family="Assistant-ExtraBold, Assistant" font-weight="800"><tspan x="-8.19" y="0">SOS</tspan></text>
    <path id="Caminho_35" data-name="Caminho 35" d="M26,14a12,12,0,0,0,0,24,11.594,11.594,0,0,0,7.6-2.99L36.292,37.7A1,1,0,0,0,38,37V30a1,1,0,1,0-2,0v4.583l-1.625-1.625a1.039,1.039,0,0,0-1.417,0A9.778,9.778,0,0,1,26,36,10,10,0,1,1,36,25.667c0,.552,0,1.112,0,1.667a1,1,0,1,0,2,0V25.625A12.041,12.041,0,0,0,26,14Z" transform="translate(296 15)" fill="#a6becf"/>
  </g>
</svg>
