<svg xmlns="http://www.w3.org/2000/svg" width="30.348" height="23.429" viewBox="0 0 30.348 23.429">
  <g id="ic_tab_home" transform="translate(0)">
    <g id="Grupo_36" data-name="Grupo 36" transform="translate(0 0)">
      <path id="Caminho_37" data-name="Caminho 37" d="M2.01,12.96A1.212,1.212,0,0,1,.538,11.035L14.315.5a1.805,1.805,0,0,1,1.849,0L23.3,5.978V3.185a1.227,1.227,0,0,1,2.453,0v4.68l4.152,3.17a1.212,1.212,0,0,1-1.472,1.925L15.22,2.883Z" transform="translate(-0.049 -0.25)" fill="#4507a1"/>
      <path id="Caminho_38" data-name="Caminho 38" d="M141.607,343.967a1.227,1.227,0,0,1,2.453,0v5.246a4.043,4.043,0,0,1-4.039,4.039H127.039A4.043,4.043,0,0,1,123,349.214v-5.246a1.227,1.227,0,0,1,2.453,0v5.246a1.6,1.6,0,0,0,1.585,1.585h12.984a1.6,1.6,0,0,0,1.585-1.585Z" transform="translate(-118.359 -329.823)" fill="#4507a1"/>
    </g>
  </g>
</svg>
