<svg xmlns="http://www.w3.org/2000/svg" width="24.865" height="24.332" viewBox="0 0 24.865 24.332">
  <path id="ic_tab_message" d="M7.735,958.328A2.743,2.743,0,0,0,5,961.064v9.85a2.743,2.743,0,0,0,2.735,2.736h.547v3.283a.821.821,0,0,0,1.4.573l3.855-3.856h3.769a.821.821,0,1,0,0-1.642h-4.1a.832.832,0,0,0-.581.239l-2.7,2.7v-2.12a.853.853,0,0,0-.821-.821H7.735a1,1,0,0,1-1.094-1.094v-9.85a1,1,0,0,1,1.094-1.094H21.957a1,1,0,0,1,1.094,1.094v9.85a1,1,0,0,1-1.094,1.094H20.043a.821.821,0,1,0,0,1.642h1.915a2.743,2.743,0,0,0,2.735-2.736v-9.85a2.743,2.743,0,0,0-2.735-2.736Zm18.239,8.755a.822.822,0,0,0,.085,1.642h1.094a.953.953,0,0,1,.821.821v7.661a.374.374,0,0,1-.179.359,1.1,1.1,0,0,1-.641.188h-.821a.853.853,0,0,0-.821.821v1.317l-2.5-1.967a.818.818,0,0,0-.5-.17H15.94c-.271,0-.372-.064-.427-.12s-.12-.157-.12-.43v-2.189a.821.821,0,1,0-1.641,0v2.189a2.058,2.058,0,0,0,2.188,2.189h6.291l3.6,2.83a.82.82,0,0,0,1.325-.641v-2.189a2.654,2.654,0,0,0,1.641-.53,2.128,2.128,0,0,0,.821-1.659v-7.661a2.467,2.467,0,0,0-2.462-2.463H26.06q-.043,0-.085,0Z" transform="translate(-4.875 -958.203)" fill="#a6becf" stroke="#a6becf" stroke-width="0.25"/>
</svg>
