<svg xmlns="http://www.w3.org/2000/svg" width="65.413" height="55.32" viewBox="0 0 65.413 55.32">
  <g id="illustration_former" transform="translate(-16.51 -38.022)">
    <g id="Grupo_24" data-name="Grupo 24" transform="translate(10.002 20.663)">
      <g id="Grupo_25" data-name="Grupo 25" transform="translate(6.508 3.482)">
        <path id="Caminho_25" data-name="Caminho 25" d="M26.873-191.49a8.931,8.931,0,0,0-5.2,3.61c-1.543,2.152-2.293,4.6-3.468,11.2a54.668,54.668,0,0,1-1.8,7.97c-1.161,3.5-2.845,5.89-5.252,7.432-1.444.934-1.515,1.458-.326,2.534,3.242,2.916,9.372,1.458,12.869-3.072a9.039,9.039,0,0,0,1.727-3.4,1.061,1.061,0,0,0-1.8-.764,7.041,7.041,0,0,0-.665,1.133c-1.713,3.61-6.187,6.116-9.245,5.21l-.581-.184,1.246-1.217c3.171-3.129,4.516-6.583,6.087-15.658,1.133-6.6,2.011-9.032,3.88-10.915a6.13,6.13,0,0,1,4.955-1.869,6.266,6.266,0,0,1,3.95,1.94c1.189,1.09,1.515,1.2,2.138.708a.857.857,0,0,0,.368-.821c0-.453-.113-.637-.878-1.388a8.356,8.356,0,0,0-5.706-2.676A6.314,6.314,0,0,0,26.873-191.49Z" transform="translate(-10.002 215.629)" fill="#4507a1"/>
        <path id="Caminho_26" data-name="Caminho 26" d="M609.06-191.5a9.984,9.984,0,0,0-4.927,2.8c-.892.934-.991,1.557-.368,2.053s.948.382,2-.566c1.727-1.571,2.916-2.109,4.63-2.109a6.656,6.656,0,0,1,5.663,3.454c1.133,1.883,1.713,3.95,2.761,9.924a50.865,50.865,0,0,0,2.279,9.315,15.713,15.713,0,0,0,4.176,6.258c.892.764.878.807-.382,1.048-2,.368-4.686-.68-6.64-2.591a9.716,9.716,0,0,1-2.181-3.044c-.5-.991-.666-1.147-1.288-1.147a1.262,1.262,0,0,0-1.048,1.047c0,.934,1.43,3.242,2.888,4.686,3.766,3.723,9.315,4.431,11.977,1.529.892-.949.793-1.359-.595-2.265-2.478-1.628-4.176-4.092-5.337-7.715a60.952,60.952,0,0,1-1.713-7.829c-.949-5.337-1.586-7.687-2.662-9.769a8.8,8.8,0,0,0-7.6-5.1A13.893,13.893,0,0,0,609.06-191.5Z" transform="translate(-563.761 215.44)" fill="#4507a1"/>
        <path id="Caminho_29" data-name="Caminho 29" d="M191.973,234.459a3.627,3.627,0,0,0-.651,1.048,5.386,5.386,0,0,1-3.893,3.114,3.6,3.6,0,0,0-1.1.439,1.21,1.21,0,0,0,.014,1.486c.226.283.4.34.92.312A8,8,0,0,0,192,238.537a7.138,7.138,0,0,0,1.614-3.129A1.132,1.132,0,0,0,191.973,234.459Z" transform="translate(-174.323 -181.991)" fill="#4507a1"/>
        <path id="Caminho_30" data-name="Caminho 30" d="M703.441,234.029c-.524.467-.5.991.128,2.265a7.231,7.231,0,0,0,4.672,3.738c1.274.368,1.812.34,2.152-.142a1.226,1.226,0,0,0-.043-1.43,3.9,3.9,0,0,0-1.1-.453,5.219,5.219,0,0,1-3.837-2.987C704.771,233.647,704.219,233.363,703.441,234.029Z" transform="translate(-656.811 -181.391)" fill="#4507a1"/>
      </g>
      <path id="Standing_Man-595b40b85ba036ed117de455" data-name="Standing Man-595b40b85ba036ed117de455" d="M27.027,2a7.216,7.216,0,1,0,7.216,7.216A7.234,7.234,0,0,0,27.027,2Zm0,2.405a4.81,4.81,0,1,1-4.81,4.81A4.792,4.792,0,0,1,27.027,4.405ZM21.615,17.634A6.636,6.636,0,0,0,15,24.248v13.6A1.2,1.2,0,0,0,15,38v.075a1.2,1.2,0,0,0,.038.338,3.617,3.617,0,0,0,3.57,3.27,3.508,3.508,0,0,0,1.2-.225v11.65a4.2,4.2,0,0,0,7.216,2.931,4.2,4.2,0,0,0,7.216-2.931V41.461a3.508,3.508,0,0,0,1.2.225,3.636,3.636,0,0,0,3.608-3.42,1.2,1.2,0,0,0,0-.188q0-.056,0-.113V24.248a6.636,6.636,0,0,0-6.614-6.614H21.615Zm0,2.405H32.438a4.2,4.2,0,0,1,4.209,4.209V37.891q0,.056,0,.113v.075q0,.056,0,.113a1.205,1.205,0,0,1-2.405-.113v-.113q0-.056,0-.113v-10.6H31.837v10.6a1.2,1.2,0,0,0,0,.15V53.111a1.809,1.809,0,0,1-3.608.188c-.006-.061,0-.125,0-.188V39.281H25.824V53.3a1.809,1.809,0,0,1-3.608-.188V27.255H19.811V37.891q0,.056,0,.113v.075a1.2,1.2,0,0,1-2.405.075q0-.038,0-.075a1.2,1.2,0,0,0,0-.225v-13.6A4.2,4.2,0,0,1,21.615,20.039Z" transform="translate(12.192 15.359)" fill="#4507a1"/>
    </g>
  </g>
</svg>
