<svg xmlns="http://www.w3.org/2000/svg" width="52.031" height="55.785" viewBox="0 0 52.031 55.785">
  <path id="illustration_family" d="M16.128,2a6.064,6.064,0,1,0,6.064,6.064A6.082,6.082,0,0,0,16.128,2ZM41.6,2a6.064,6.064,0,1,0,6.064,6.064A6.082,6.082,0,0,0,41.6,2ZM16.128,4.425A3.638,3.638,0,1,1,12.49,8.064,3.62,3.62,0,0,1,16.128,4.425Zm25.467,0a3.638,3.638,0,1,1-3.638,3.638A3.62,3.62,0,0,1,41.6,4.425ZM10.671,15.34A6.691,6.691,0,0,0,4,22.01V36.941a2.58,2.58,0,0,0,.038.569,3.648,3.648,0,0,0,3.6,3.3,3.537,3.537,0,0,0,1.213-.227V54.564a3.231,3.231,0,0,0,3.221,3.221H14.12a3.135,3.135,0,0,0,2.008-.834,3.134,3.134,0,0,0,2.009.834h2.046A3.231,3.231,0,0,0,23.4,54.564V46.643a3.537,3.537,0,0,0,1.213.227v7.883a3.05,3.05,0,0,0,3.032,3.032h3.638a3.05,3.05,0,0,0,3.032-3.032V46.87a3.537,3.537,0,0,0,1.213-.227v7.5a3.657,3.657,0,0,0,3.638,3.638,3.616,3.616,0,0,0,2.425-.947,3.616,3.616,0,0,0,2.425.947,3.657,3.657,0,0,0,3.638-3.638v-9.7H50.8a2.368,2.368,0,0,0,1.971-1.061q0-.019,0-.038a2.613,2.613,0,0,0,.3-2.16q0-.019,0-.038l-.493-1.554A3.387,3.387,0,0,0,55.5,38.04a3.97,3.97,0,0,0,.3-3.3c-1.115-3.44-4.889-14.932-4.889-14.932a7.016,7.016,0,0,0-1.554-2.691,5.662,5.662,0,0,0-4.131-1.781H37.957a5.648,5.648,0,0,0-4.131,1.781,1.22,1.22,0,1,0,1.781,1.667,2.988,2.988,0,0,1,2.35-1.023h4.851q.057,0,.114,0h2.312a3,3,0,0,1,2.35,1.023,5.174,5.174,0,0,1,1.061,1.781s3.739,11.463,4.851,14.894a1.572,1.572,0,0,1-.038,1.289.864.864,0,0,1-.872.417,1.182,1.182,0,0,1-1.1-.758c0-.011,0-.027,0-.038a1.213,1.213,0,0,0-.114-.341L48,25.875a1.216,1.216,0,1,0-2.312.758L49.1,36.865a1.213,1.213,0,0,0,.114.3l1.554,4.737v.038c0,.038-.032.056-.038.076H37.957V34.743a4.869,4.869,0,0,0-4.851-4.851H25.83a4.869,4.869,0,0,0-4.851,4.851v2.236q0,.057,0,.114V54.564a.77.77,0,0,1-.8.8H18.137a.769.769,0,0,1-.8-.8V39.177a1.213,1.213,0,1,0-2.425,0V54.564a.77.77,0,0,1-.8.8H12.073a.769.769,0,0,1-.8-.8V25.042a1.213,1.213,0,0,0-1.326-1.251,1.213,1.213,0,0,0-.152.038,1.213,1.213,0,0,0-.947,1.213V36.979q0,.057,0,.114v.076a1.214,1.214,0,0,1-2.425.076q0-.038,0-.076a1.213,1.213,0,0,0,0-.227V22.01a4.235,4.235,0,0,1,4.244-4.244H21.585a4.186,4.186,0,0,1,2.425.758,1.213,1.213,0,1,0,1.4-1.971,6.673,6.673,0,0,0-3.828-1.213Zm18.8,3.638a4.851,4.851,0,1,0,4.851,4.851A4.869,4.869,0,0,0,29.468,18.978Zm0,2.425a2.425,2.425,0,1,1-2.425,2.425A2.407,2.407,0,0,1,29.468,21.4ZM25.83,32.318h7.276a2.407,2.407,0,0,1,2.425,2.425V43q0,.057,0,.114v.114a1.194,1.194,0,0,1-1.213,1.213H33.106a1.213,1.213,0,0,0-1.213,1.213v9.1a.59.59,0,0,1-.606.606H27.649a.59.59,0,0,1-.606-.606v-9.1a1.213,1.213,0,0,0-1.213-1.213H24.617A1.194,1.194,0,0,1,23.4,43.232V34.743A2.407,2.407,0,0,1,25.83,32.318ZM37.957,44.445h2.425v9.7a1.213,1.213,0,1,1-2.425,0Zm4.851,0h2.425v9.7a1.213,1.213,0,1,1-2.425,0Z" transform="translate(-3.996 -2)" fill="#4507a1"/>
</svg>
