<svg xmlns="http://www.w3.org/2000/svg" width="59.57" height="45.112" viewBox="0 0 59.57 45.112">
  <g id="illustration_specialist" transform="translate(-9.75 -129.688)">
    <g id="Grupo_23" data-name="Grupo 23" transform="translate(10 129.935)">
      <path id="Caminho_19" data-name="Caminho 19" d="M37.575-380.947a26.382,26.382,0,0,0-7.133,1.483,29.924,29.924,0,0,0-2.644,2.373l-2.257,2.206-4.772,1.935c-2.618,1.07-5.262,2.206-5.843,2.515a8.509,8.509,0,0,0-4.734,5.649c-.154.658-.193,2.953-.193,14.174,0,8.5.052,13.478.129,13.633a1.08,1.08,0,0,0,.529.374c.58.206,57.175.206,57.755,0a1.077,1.077,0,0,0,.529-.374c.077-.155.129-5.133.129-13.633,0-14.665.026-14.187-.774-15.825a9.45,9.45,0,0,0-4.321-4.114c-.49-.245-3.083-1.328-5.74-2.412-3.573-1.444-4.9-2.038-5.095-2.283-.142-.181-1.187-1.212-2.335-2.283l-2.077-1.96-1.432-.426a27.506,27.506,0,0,0-6.075-1.045c-1.032-.064-1.935-.116-2.012-.1S38.4-381.012,37.575-380.947Zm6.152,2.231a9.469,9.469,0,0,1,2.9.761,18.774,18.774,0,0,1-3.405,3.186,17.134,17.134,0,0,1-3.689,1.935,17.121,17.121,0,0,1-3.843-2.051,16.247,16.247,0,0,1-3.25-3.07,17.823,17.823,0,0,1,4.579-.993A48.154,48.154,0,0,1,43.727-378.717Zm-12.962,1.87A17.886,17.886,0,0,0,33.538-374c.438.348,1.3.954,1.909,1.341l1.109.684-.722.5a6.414,6.414,0,0,0-2.038,2.4l-.284.619-.928-.658a13.582,13.582,0,0,1-4.1-4.579l-.477-.877,1.264-1.2C30.469-376.9,30.765-377.117,30.765-376.846Zm19.024,1.083,1.277,1.2-.516.941a13.558,13.558,0,0,1-4.295,4.682l-.684.464-.387-.722a5.987,5.987,0,0,0-1.96-2.283l-.709-.49,1.109-.684c.606-.387,1.47-.993,1.922-1.354a18.31,18.31,0,0,0,2.76-2.85C48.306-377.1,48.59-376.9,49.789-375.763ZM27.05-372.2l.49.812v12.833l-.709.155a7.2,7.2,0,0,0-5.056,4.978,26.616,26.616,0,0,0-.181,5.933,3.264,3.264,0,0,0,1.535,2.334c1.109.671,2.089.7,2.567.064s-.155-1.561-1.071-1.561a1.157,1.157,0,0,1-.709-.387l-.387-.387.039-2.734c.039-2.67.052-2.773.387-3.5a5.011,5.011,0,0,1,8.1-1.509c1.264,1.251,1.6,2.528,1.522,5.739-.039,1.948-.052,2-.374,2.335a2.127,2.127,0,0,1-.9.451c-.761.181-1.019.439-1.019,1.032a.792.792,0,0,0,.335.748c.413.322.7.335,1.586.064a3.5,3.5,0,0,0,2.115-2.051,23.505,23.505,0,0,0,.039-6.268,6.933,6.933,0,0,0-1.844-3.353,6.489,6.489,0,0,0-3.057-1.87l-.916-.284-.039-5.172c-.013-2.85.013-5.172.052-5.172a5.384,5.384,0,0,1,.748.606c1.161,1.045,3.366,2.36,3.985,2.36.426,0,.8-.464.98-1.212a4.359,4.359,0,0,1,2.244-2.966,3.751,3.751,0,0,1,.826-.335c.142,0,.168,2.928.168,15.993v15.993H19.157v-18.716l-.322-.309a.949.949,0,0,0-1.354-.064c-.258.258-.258.426-.258,9.673v9.415H11.935v-12.433c0-7.906.052-12.678.129-13.117a6.759,6.759,0,0,1,3.276-4.359c.8-.477,10.9-4.669,11.092-4.6A3.418,3.418,0,0,1,27.05-372.2ZM58-370.926c2.747,1.135,5.327,2.257,5.74,2.489a6.8,6.8,0,0,1,3.263,4.359c.077.438.129,5.211.129,13.117v12.433H61.848v-9.415c0-9.248,0-9.415-.258-9.673a.964.964,0,0,0-1.406.077c-.271.335-.271.426-.271,9.673v9.338H40.567v-15.993c0-13.065.026-15.993.168-15.993a3.793,3.793,0,0,1,.826.335,4.36,4.36,0,0,1,2.244,2.966c.181.748.555,1.212.98,1.212.7,0,2.966-1.419,4.321-2.683l.877-.826v10.2l-.7.309a4.349,4.349,0,0,0-2.1,2,3.372,3.372,0,0,0-.361,1.9,3.069,3.069,0,0,0,.361,1.844,3.984,3.984,0,0,0,3.663,2.321,2.935,2.935,0,0,0,1.819-.3,4.807,4.807,0,0,0,2.244-2.192,3.585,3.585,0,0,0,.3-1.741,3.094,3.094,0,0,0-.439-1.909A3.993,3.993,0,0,0,52.729-359l-.684-.309v-6.436c0-5.817.026-6.488.219-6.9.168-.361.284-.451.49-.4C52.9-373,55.257-372.048,58-370.926Zm-5.972,13.762a2.271,2.271,0,0,1-.026,4.05,2.135,2.135,0,0,1-1.973.026,2.245,2.245,0,0,1-.116-4.024A2.735,2.735,0,0,1,52.033-357.165Z" transform="translate(-10 381.065)" fill="#4507a1" stroke="#4507a1" stroke-width="0.5"/>
      <path id="Caminho_20" data-name="Caminho 20" d="M549.781-68.627a1.351,1.351,0,0,0-.357,2.156,1.369,1.369,0,0,0,2.383-.989A1.36,1.36,0,0,0,549.781-68.627Z" transform="translate(-516.871 87.369)" fill="#4507a1" stroke="#4507a1" stroke-width="0.5"/>
      <path id="Caminho_21" data-name="Caminho 21" d="M549.7,85.433a1.455,1.455,0,0,0-.065,1.929c.26.341.471.421,1.038.421s.778-.081,1.038-.421a1.77,1.77,0,0,0,.34-.989A1.381,1.381,0,0,0,549.7,85.433Z" transform="translate(-517.12 -57.31)" fill="#4507a1" stroke="#4507a1" stroke-width="0.5"/>
      <path id="Caminho_22" data-name="Caminho 22" d="M549.545,239.445a1.375,1.375,0,0,0,.973,2.351,1.378,1.378,0,0,0,0-2.756A1.252,1.252,0,0,0,549.545,239.445Z" transform="translate(-516.96 -203.522)" fill="#4507a1" stroke="#4507a1" stroke-width="0.5"/>
    </g>
  </g>
</svg>
