<svg xmlns="http://www.w3.org/2000/svg" width="60" height="57.073" viewBox="0 0 60 57.073">
  <g id="mood_happy" transform="translate(-9.026 -965.362)">
    <path id="Caminho_33" data-name="Caminho 33" d="M40.48,965.362a28.308,28.308,0,0,0-15.394,4.6,5.375,5.375,0,0,0-6.565.549,5.53,5.53,0,0,0-4.575-1.372,5.217,5.217,0,0,0-2.127.892,6.577,6.577,0,0,0-2.608,3.521,5.05,5.05,0,0,0,.823,4.39c1.529,2.039,2.392,3.416,4.049,5.556a31.374,31.374,0,0,0-1.372,4.184,1.464,1.464,0,1,0,2.836.709c.19-.774.408-1.519.663-2.264.37.443.75.883,1.189,1.395a1.464,1.464,0,0,0,2.242,0,114.892,114.892,0,0,0,7.365-9.581,5.05,5.05,0,0,0,.823-4.39,5.688,5.688,0,0,0-.64-1.441,25.228,25.228,0,0,1,13.289-3.819A25.61,25.61,0,1,1,14.863,993.9a1.464,1.464,0,0,0-2.928,0A28.546,28.546,0,1,0,40.48,965.362ZM14.908,971.9a2.651,2.651,0,0,1,2.356,1.509,1.464,1.464,0,0,0,2.516,0,2.473,2.473,0,0,1,3.751-1.006,3.786,3.786,0,0,1,1.487,1.944,1.893,1.893,0,0,1-.343,1.829c-2.082,2.776-3.139,4.419-6.153,8.049-3.014-3.63-4.071-5.273-6.153-8.049a1.893,1.893,0,0,1-.343-1.829,3.786,3.786,0,0,1,1.487-1.944,2.729,2.729,0,0,1,1.006-.457,2.321,2.321,0,0,1,.389-.046Zm18.253,11.753a4.9,4.9,0,0,0-3.728,1.532,6.525,6.525,0,0,0-1.372,3.338,1.464,1.464,0,1,0,2.882.48,4.054,4.054,0,0,1,.686-1.9c.28-.323.585-.52,1.532-.526s1.252.2,1.532.526a4.054,4.054,0,0,1,.686,1.9,1.464,1.464,0,1,0,2.882-.48,6.525,6.525,0,0,0-1.372-3.338,4.9,4.9,0,0,0-3.728-1.532Zm13.907,0a4.9,4.9,0,0,0-3.728,1.532,6.525,6.525,0,0,0-1.372,3.338,1.464,1.464,0,1,0,2.882.48,4.054,4.054,0,0,1,.686-1.9c.28-.323.585-.52,1.533-.526s1.253.2,1.532.526a4.054,4.054,0,0,1,.686,1.9,1.464,1.464,0,1,0,2.882-.48,6.525,6.525,0,0,0-1.372-3.338,4.9,4.9,0,0,0-3.728-1.532Zm8.76,11.662a1.464,1.464,0,0,0-1.4,1.189c-1.888,7.578-8.1,12.034-14.685,12.027s-12.8-4.462-14.685-12.073a1.462,1.462,0,1,0-2.836.709c2.189,8.823,9.6,14.3,17.521,14.291s15.33-5.452,17.521-14.245a1.464,1.464,0,0,0-1.441-1.9Z" fill="#0bb480"/>
  </g>
</svg>
