<svg xmlns="http://www.w3.org/2000/svg" width="60" height="60" viewBox="0 0 60 60">
  <g id="mood_neutral" transform="translate(-7 -7)">
    <g id="Grupo_31" data-name="Grupo 31" transform="translate(7 7)">
      <path id="Caminho_34" data-name="Caminho 34" d="M37,7a29.845,29.845,0,0,0-20.494,8.045,1.4,1.4,0,1,0,1.9,2.049,27.1,27.1,0,1,1-3.968,4.644,1.4,1.4,0,1,0-2.289-1.548A30,30,0,1,0,37,7ZM27.233,23.047a4.884,4.884,0,1,0,4.884,4.884A4.905,4.905,0,0,0,27.233,23.047Zm19.535,0a4.884,4.884,0,1,0,4.884,4.884A4.905,4.905,0,0,0,46.767,23.047ZM27.233,25.837A2.093,2.093,0,1,1,25.14,27.93,2.072,2.072,0,0,1,27.233,25.837Zm19.535,0a2.093,2.093,0,1,1-2.093,2.093A2.072,2.072,0,0,1,46.767,25.837Z" transform="translate(-7 -7)" fill="#d4aa05"/>
      <rect id="Retângulo_21" data-name="Retângulo 21" width="24.88" height="3" rx="1.5" transform="translate(18 39.07)" fill="#d4aa05"/>
    </g>
  </g>
</svg>
