<svg xmlns="http://www.w3.org/2000/svg" width="60" height="60" viewBox="0 0 60 60">
  <g id="mood_angry" transform="translate(-10.031 -9.969)">
    <g id="Grupo_29" data-name="Grupo 29" transform="translate(10.031 9.969)">
      <path id="Caminho_32" data-name="Caminho 32" d="M40.031,962.331a30,30,0,1,0,24.488,47.4,1.511,1.511,0,0,0-2.439-1.783,27.035,27.035,0,1,1-22.049-42.666,27.122,27.122,0,0,1,27.045,27.044,27.275,27.275,0,0,1-2.158,10.7,1.5,1.5,0,1,0,2.744,1.126,30,30,0,0,0-27.631-41.822ZM26.4,978.8a1.5,1.5,0,0,0-.633,2.815c2.263,1.307,2.747,1.587,4.152,2.393a2.992,2.992,0,0,0-1.149,2.322,2.993,2.993,0,0,0,5.958.422c1.431.809,1.642.915,1.642.915a1.5,1.5,0,1,0,1.314-2.7s-.668-.331-10.414-5.958a1.513,1.513,0,0,0-.868-.211Zm27.045,0a1.509,1.509,0,0,0-.657.211c-9.746,5.627-10.414,5.958-10.414,5.958a1.5,1.5,0,1,0,1.314,2.7s.211-.106,1.642-.915A2.992,2.992,0,1,0,50.141,984c1.4-.805,1.889-1.086,4.152-2.393a1.5,1.5,0,0,0-.844-2.815ZM28.632,998.336a1.5,1.5,0,1,0,.141,3H51.29a1.5,1.5,0,1,0,0-3H28.632Z" transform="translate(-10.031 -962.331)" fill="#cb0000"/>
    </g>
  </g>
</svg>
