<svg xmlns="http://www.w3.org/2000/svg" width="60.939" height="60.94" viewBox="0 0 60.939 60.94">
  <g id="mood_sad" transform="translate(-7 -7)">
    <g id="Grupo_28" data-name="Grupo 28" transform="translate(7 7)">
      <path id="Caminho_31" data-name="Caminho 31" d="M37.47,7a30.313,30.313,0,0,0-20.815,8.171,1.424,1.424,0,1,0,1.927,2.082,27.524,27.524,0,1,1-4.03,4.717A1.417,1.417,0,1,0,12.226,20.4,30.474,30.474,0,1,0,37.47,7Zm-9.92,16.3a4.96,4.96,0,1,0,4.96,4.96A4.982,4.982,0,0,0,27.549,23.3Zm19.841,0a4.96,4.96,0,1,0,4.96,4.96A4.982,4.982,0,0,0,47.39,23.3ZM27.549,26.132a2.126,2.126,0,1,1-2.126,2.126A2.1,2.1,0,0,1,27.549,26.132Zm19.841,0a2.126,2.126,0,1,1-2.126,2.126A2.1,2.1,0,0,1,47.39,26.132ZM37.47,39.6a17.457,17.457,0,0,0-13.109,5.425A1.42,1.42,0,1,0,26.486,46.9,14.756,14.756,0,0,1,37.47,42.43,14.748,14.748,0,0,1,48.453,46.9a1.42,1.42,0,1,0,2.126-1.882A17.452,17.452,0,0,0,37.47,39.6Z" transform="translate(-7 -7)" fill="#2da0dc"/>
    </g>
  </g>
</svg>
